# xmcd
#
# Track frame offsets: 
#        150
#        6375
#        23100
#        39449
#        55124
#        78973
#        95248
#        118497
#
# Disc length: 1849 seconds
#
# Revision: 0
# Processed by: cddbd v1.5.2PL0 Copyright (c) Steve Scherf et al.
# Submitted via: ExactAudioCopy v1.1
#
DISCID=64073708
DTITLE=福井樹 - 透明な街
DYEAR=2015
DGENRE=
TTITLE0=透明と浮遊
TTITLE1=魔法
TTITLE2=トイカメラ
TTITLE3=さよなら方程式
TTITLE4=窓際 
TTITLE5=食卓
TTITLE6=君の傘を手離す日
TTITLE7=うそつき。
EXTD=
EXTT0=
EXTT1=
EXTT2=
EXTT3=
EXTT4=
EXTT5=
EXTT6=
EXTT7=
PLAYORDER=
